<?xml version="1.0" standalone="no"?><!DOCTYPE svg PUBLIC "-//W3C//DTD SVG 1.1//EN" "http://www.w3.org/Graphics/SVG/1.1/DTD/svg11.dtd"><svg t="1659513096257" class="icon" viewBox="0 0 1024 1024" version="1.1" xmlns="http://www.w3.org/2000/svg" p-id="2251" xmlns:xlink="http://www.w3.org/1999/xlink" width="200" height="200"><defs><style type="text/css">@font-face { font-family: feedback-iconfont; src: url("//at.alicdn.com/t/font_1031158_u69w8yhxdu.woff2?t=1630033759944") format("woff2"), url("//at.alicdn.com/t/font_1031158_u69w8yhxdu.woff?t=1630033759944") format("woff"), url("//at.alicdn.com/t/font_1031158_u69w8yhxdu.ttf?t=1630033759944") format("truetype"); }
</style></defs><path d="M778.856767 918.197302l16.818037-16.818037L795.674804 552.572044l0-40.61093 40.611953 0 56.18258 0 15.634072-31.268144L511.334851 119.989815 114.567315 480.69297l15.632025 31.268144 56.183604 0 40.61093 0 0 40.61093 0 348.807221 16.819061 16.818037 145.625682 0L389.438617 633.857349 389.438617 593.182974l40.674375 0 162.444742 0 40.672328 0 0 40.674375 0 284.339954L778.856767 918.197302M795.674804 958.808232 592.557734 958.808232l0-324.950883L430.112991 633.857349l0 324.950883L226.994897 958.808232l-40.61093-40.61093L186.383968 552.572044l-81.285305 0-40.61093-81.222883L511.334851 65.113997l446.848141 406.236188-40.611953 81.222883-81.283258 0 0 365.625258L795.674804 958.808232 795.674804 958.808232 795.674804 958.808232z" p-id="2252"></path></svg>